<svg id="visual" viewBox="0 0 900 600" width="900" height="600" xmlns="http://www.w3.org/2000/svg" xmlns:xlink="http://www.w3.org/1999/xlink" version="1.1"><g><g transform="translate(778 232)"><path d="M76.6 -59.4C95 -37.9 103 -6.3 99.4 28C95.8 62.3 80.7 99.3 51.6 117.3C22.4 135.3 -20.8 134.2 -51.5 115.9C-82.2 97.7 -100.3 62.4 -103.3 29.2C-106.3 -3.9 -94.3 -34.8 -74.6 -56.6C-54.9 -78.4 -27.4 -91.2 0.8 -91.8C29 -92.5 58.1 -81 76.6 -59.4Z" stroke="#f9faff" fill="none" stroke-width="9"></path></g><g transform="translate(559 496)"><path d="M70.9 -55.4C92.7 -29.1 111.9 0.4 108.1 27.8C104.3 55.2 77.6 80.4 46.1 95.5C14.6 110.6 -21.7 115.5 -45.6 101.4C-69.4 87.3 -80.8 54.2 -85.7 22.5C-90.6 -9.2 -89 -39.5 -73.7 -64.3C-58.3 -89.2 -29.2 -108.6 -2.3 -106.7C24.5 -104.9 49 -81.8 70.9 -55.4Z" stroke="#f9faff" fill="none" stroke-width="9"></path></g><g transform="translate(83 34)"><path d="M72.9 -57.3C89.1 -37.9 93.1 -7.9 85.4 17C77.8 41.9 58.5 61.6 32.9 77.3C7.4 93 -24.3 104.8 -45.2 94.5C-66.1 84.2 -76 51.9 -79.6 22.2C-83.2 -7.6 -80.4 -34.8 -66.1 -53.7C-51.8 -72.7 -25.9 -83.5 1.2 -84.5C28.4 -85.5 56.8 -76.7 72.9 -57.3Z" stroke="#f9faff" fill="none" stroke-width="9"></path></g><g transform="translate(421 40)"><path d="M37 -30.3C44.2 -20.5 43.7 -5.3 40.1 8.6C36.5 22.6 29.8 35.4 18.9 41.5C8 47.6 -7.2 47.1 -18.6 40.8C-30 34.5 -37.6 22.4 -39.2 10.4C-40.9 -1.6 -36.5 -13.6 -28.9 -23.5C-21.4 -33.4 -10.7 -41.2 2.1 -42.9C14.9 -44.6 29.8 -40.1 37 -30.3Z" stroke="#f9faff" fill="none" stroke-width="9"></path></g></g></svg>