<svg id="visual" viewBox="0 0 900 600" width="900" height="600" xmlns="http://www.w3.org/2000/svg" xmlns:xlink="http://www.w3.org/1999/xlink" version="1.1"><path d="M0 427L16.7 427.7C33.3 428.3 66.7 429.7 100 423C133.3 416.3 166.7 401.7 200 398C233.3 394.3 266.7 401.7 300 403C333.3 404.3 366.7 399.7 400 393.3C433.3 387 466.7 379 500 379.8C533.3 380.7 566.7 390.3 600 405.7C633.3 421 666.7 442 700 448.5C733.3 455 766.7 447 800 445.2C833.3 443.3 866.7 447.7 883.3 449.8L900 452L900 601L883.3 601C866.7 601 833.3 601 800 601C766.7 601 733.3 601 700 601C666.7 601 633.3 601 600 601C566.7 601 533.3 601 500 601C466.7 601 433.3 601 400 601C366.7 601 333.3 601 300 601C266.7 601 233.3 601 200 601C166.7 601 133.3 601 100 601C66.7 601 33.3 601 16.7 601L0 601Z" fill="#fa7268"></path><path d="M0 456L16.7 462.8C33.3 469.7 66.7 483.3 100 488.3C133.3 493.3 166.7 489.7 200 487C233.3 484.3 266.7 482.7 300 483.7C333.3 484.7 366.7 488.3 400 494C433.3 499.7 466.7 507.3 500 504.2C533.3 501 566.7 487 600 473C633.3 459 666.7 445 700 444.8C733.3 444.7 766.7 458.3 800 464.3C833.3 470.3 866.7 468.7 883.3 467.8L900 467L900 601L883.3 601C866.7 601 833.3 601 800 601C766.7 601 733.3 601 700 601C666.7 601 633.3 601 600 601C566.7 601 533.3 601 500 601C466.7 601 433.3 601 400 601C366.7 601 333.3 601 300 601C266.7 601 233.3 601 200 601C166.7 601 133.3 601 100 601C66.7 601 33.3 601 16.7 601L0 601Z" fill="#eb467a"></path><path d="M0 508L16.7 505.8C33.3 503.7 66.7 499.3 100 495.8C133.3 492.3 166.7 489.7 200 495.8C233.3 502 266.7 517 300 523.3C333.3 529.7 366.7 527.3 400 528C433.3 528.7 466.7 532.3 500 528C533.3 523.7 566.7 511.3 600 504.5C633.3 497.7 666.7 496.3 700 497.7C733.3 499 766.7 503 800 512.5C833.3 522 866.7 537 883.3 544.5L900 552L900 601L883.3 601C866.7 601 833.3 601 800 601C766.7 601 733.3 601 700 601C666.7 601 633.3 601 600 601C566.7 601 533.3 601 500 601C466.7 601 433.3 601 400 601C366.7 601 333.3 601 300 601C266.7 601 233.3 601 200 601C166.7 601 133.3 601 100 601C66.7 601 33.3 601 16.7 601L0 601Z" fill="#c72495"></path></svg>